<svg width="101" height="109" viewBox="0 0 101 109" fill="none" xmlns="http://www.w3.org/2000/svg">
<path d="M48.4912 58.2354C50.0426 57.3356 51.9574 57.3356 53.5088 58.2354L83.5771 75.6748C86.7952 77.5413 86.8959 82.1019 83.8789 84.1367L83.5771 84.3252L53.5088 101.765C52.0543 102.608 50.2805 102.661 48.7861 101.923L48.4912 101.765L18.4229 84.3252C15.101 82.3985 15.101 77.6015 18.4229 75.6748L48.4912 58.2354Z" stroke="#BF68B9" stroke-width="10"/>
<path d="M44 7.4641C47.7128 5.32051 52.2872 5.32051 56 7.4641L87.3013 25.5359C91.0141 27.6795 93.3013 31.641 93.3013 35.9282V72.0718C93.3013 76.359 91.0141 80.3205 87.3013 82.4641L56 100.536C52.2872 102.679 47.7128 102.679 44 100.536L12.6987 82.4641C8.98592 80.3205 6.69873 76.359 6.69873 72.0718V35.9282C6.69873 31.641 8.98592 27.6795 12.6987 25.5359L44 7.4641Z" stroke="#BF68B9" stroke-width="10"/>
</svg>
