<svg width="191" height="54" viewBox="0 0 191 54" fill="none" xmlns="http://www.w3.org/2000/svg">
<path d="M23.7461 28.6172C24.5215 28.1676 25.4785 28.1676 26.2539 28.6172L41.2881 37.3379C42.8971 38.2711 42.948 40.551 41.4395 41.5684L41.2881 41.6621L26.2539 50.3828C25.5269 50.8043 24.6405 50.8307 23.8936 50.4619L23.7461 50.3828L8.71191 41.6621C7.05098 40.6988 7.05097 38.3012 8.71191 37.3379L23.7461 28.6172Z" stroke="#BF68B9" stroke-width="5"/>
<path d="M22 3.73205C23.8564 2.66025 26.1436 2.66025 28 3.73205L43.6506 12.7679C45.507 13.8397 46.6506 15.8205 46.6506 17.9641V36.0359C46.6506 38.1795 45.507 40.1603 43.6506 41.2321L28 50.2679C26.1436 51.3397 23.8564 51.3397 22 50.2679L6.34936 41.2321C4.49296 40.1603 3.34937 38.1795 3.34937 36.0359V17.9641C3.34937 15.8205 4.49296 13.8397 6.34937 12.7679L22 3.73205Z" stroke="#BF68B9" stroke-width="5"/>
<path d="M53.8 40V15.5H57.125V25.615H69.585V15.5H72.91V40H69.585V28.765H57.125V40H53.8ZM84.8584 40.35C83.0617 40.35 81.5276 39.9533 80.2559 39.16C78.9959 38.355 78.0276 37.2817 77.3509 35.94C76.6859 34.5867 76.3534 33.0817 76.3534 31.425C76.3534 29.7683 76.6859 28.2692 77.3509 26.9275C78.0276 25.5742 78.9959 24.5008 80.2559 23.7075C81.5276 22.9025 83.0617 22.5 84.8584 22.5C86.6434 22.5 88.1717 22.9025 89.4434 23.7075C90.7151 24.5008 91.6834 25.5742 92.3484 26.9275C93.0251 28.2692 93.3634 29.7683 93.3634 31.425C93.3634 33.0817 93.0251 34.5867 92.3484 35.94C91.6834 37.2817 90.7151 38.355 89.4434 39.16C88.1717 39.9533 86.6434 40.35 84.8584 40.35ZM84.8584 37.55C86.5617 37.55 87.8684 37.0133 88.7784 35.94C89.6884 34.855 90.1434 33.35 90.1434 31.425C90.1434 29.5 89.6884 28.0008 88.7784 26.9275C87.8684 25.8425 86.5617 25.3 84.8584 25.3C83.1667 25.3 81.8601 25.8425 80.9384 26.9275C80.0284 28.0008 79.5734 29.5 79.5734 31.425C79.5734 33.35 80.0284 34.855 80.9384 35.94C81.8601 37.0133 83.1667 37.55 84.8584 37.55ZM96.6116 40V22.85H99.0616L99.6916 26.14L98.5016 25.58C99.5749 24.425 100.619 23.6258 101.634 23.1825C102.649 22.7275 103.717 22.5 104.837 22.5C105.677 22.5 106.482 22.64 107.252 22.92C108.033 23.1883 108.733 23.6667 109.352 24.355C109.982 25.0317 110.483 25.9767 110.857 27.19L109.982 26.805C110.495 25.475 111.282 24.425 112.344 23.655C113.406 22.885 114.835 22.5 116.632 22.5C118.067 22.5 119.274 22.7683 120.254 23.305C121.234 23.83 121.969 24.6408 122.459 25.7375C122.961 26.8225 123.212 28.205 123.212 29.885V40H120.062V29.92C120.062 28.31 119.747 27.1375 119.117 26.4025C118.487 25.6675 117.46 25.3 116.037 25.3C115.033 25.3 114.228 25.4575 113.622 25.7725C113.015 26.0758 112.554 26.4725 112.239 26.9625C111.936 27.4525 111.732 27.9717 111.627 28.52C111.533 29.0683 111.487 29.5817 111.487 30.06V40H108.337V30.55C108.337 29.15 108.167 28.0708 107.829 27.3125C107.491 26.5542 107.018 26.0292 106.412 25.7375C105.805 25.4458 105.105 25.3 104.312 25.3C103.157 25.3 102.124 25.5567 101.214 26.07C100.304 26.5717 99.6916 27.3767 99.3766 28.485L99.7616 26.77V40H96.6116ZM135.53 40.35C133.512 40.35 131.814 39.9358 130.437 39.1075C129.061 38.2792 128.017 37.1825 127.305 35.8175C126.605 34.4408 126.255 32.93 126.255 31.285C126.255 29.6867 126.582 28.2225 127.235 26.8925C127.9 25.5625 128.857 24.5008 130.105 23.7075C131.365 22.9025 132.882 22.5 134.655 22.5C136.078 22.5 137.344 22.7858 138.452 23.3575C139.572 23.9175 140.447 24.74 141.077 25.825C141.719 26.8983 142.04 28.205 142.04 29.745C142.04 29.99 142.028 30.2583 142.005 30.55C141.993 30.83 141.958 31.1217 141.9 31.425H129.475C129.627 33.0117 130.006 34.2483 130.612 35.135C131.219 36.0217 131.983 36.6458 132.905 37.0075C133.827 37.3692 134.83 37.55 135.915 37.55C136.708 37.55 137.537 37.4683 138.4 37.305C139.263 37.1417 140.08 36.885 140.85 36.535L141.27 39.02C140.605 39.3117 139.794 39.6092 138.837 39.9125C137.881 40.2042 136.778 40.35 135.53 40.35ZM129.755 29.255H138.785C138.785 28.45 138.633 27.75 138.33 27.155C138.027 26.56 137.566 26.105 136.947 25.79C136.329 25.4633 135.542 25.3 134.585 25.3C133.185 25.3 132.106 25.65 131.347 26.35C130.601 27.0383 130.07 28.0067 129.755 29.255ZM145.775 40V15.5H154.945C157.278 15.5 159.355 15.99 161.175 16.97C162.995 17.9383 164.424 19.3383 165.463 21.17C166.501 22.99 167.02 25.1833 167.02 27.75C167.02 30.3167 166.501 32.5158 165.463 34.3475C164.424 36.1675 162.995 37.5675 161.175 38.5475C159.355 39.5158 157.278 40 154.945 40H145.775ZM150.255 36.01H154.945C156.532 36.01 157.856 35.6775 158.918 35.0125C159.979 34.3475 160.778 33.3967 161.315 32.16C161.852 30.9233 162.12 29.4533 162.12 27.75C162.12 26.0467 161.852 24.5767 161.315 23.34C160.778 22.1033 159.979 21.1525 158.918 20.4875C157.856 19.8225 156.532 19.49 154.945 19.49H150.255V36.01ZM170.966 40V15.5H180.206C182.574 15.5 184.33 16.0075 185.473 17.0225C186.628 18.0258 187.206 19.49 187.206 21.415C187.206 22.85 186.879 24.0517 186.226 25.02C185.584 25.9767 184.616 26.6767 183.321 27.12V26.28C185.281 26.7 186.745 27.47 187.713 28.59C188.681 29.71 189.166 31.1917 189.166 33.035C189.166 35.24 188.454 36.955 187.031 38.18C185.607 39.3933 183.659 40 181.186 40H170.966ZM175.446 36.01H180.521C181.746 36.01 182.72 35.7592 183.443 35.2575C184.178 34.7558 184.546 33.8517 184.546 32.545C184.546 31.215 184.161 30.3108 183.391 29.8325C182.621 29.3542 181.664 29.115 180.521 29.115H175.446V36.01ZM175.446 25.125H179.541C180.626 25.125 181.436 24.9033 181.973 24.46C182.521 24.0167 182.796 23.305 182.796 22.325C182.796 21.31 182.521 20.5867 181.973 20.155C181.436 19.7117 180.626 19.49 179.541 19.49H175.446V25.125Z" fill="white"/>
</svg>
